<mxfile host="app.diagrams.net" modified="2021-05-20T04:29:42.781Z" agent="5.0 (Windows NT 10.0; Win64; x64) AppleWebKit/537.36 (KHTML, like Gecko) Chrome/90.0.4430.212 Safari/537.36" etag="d8E0CVajAMJ97_6PlgPN" version="14.6.13" type="github">
  <diagram id="C5RBs43oDa-KdzZeNtuy" name="Page-1">
    <mxGraphModel dx="868" dy="450" grid="1" gridSize="10" guides="1" tooltips="1" connect="1" arrows="1" fold="1" page="1" pageScale="1" pageWidth="827" pageHeight="1169" math="0" shadow="0">
      <root>
        <mxCell id="WIyWlLk6GJQsqaUBKTNV-0" />
        <mxCell id="WIyWlLk6GJQsqaUBKTNV-1" parent="WIyWlLk6GJQsqaUBKTNV-0" />
        <mxCell id="HCvOZasf8MM4kw8mT1G2-7" value="Web" style="swimlane;" vertex="1" parent="WIyWlLk6GJQsqaUBKTNV-1">
          <mxGeometry x="40" y="160" width="320" height="670" as="geometry" />
        </mxCell>
        <mxCell id="HCvOZasf8MM4kw8mT1G2-0" value="Start" style="ellipse;whiteSpace=wrap;html=1;" vertex="1" parent="HCvOZasf8MM4kw8mT1G2-7">
          <mxGeometry x="100" y="50" width="120" height="30" as="geometry" />
        </mxCell>
        <mxCell id="HCvOZasf8MM4kw8mT1G2-1" value="Create LKH" style="whiteSpace=wrap;html=1;" vertex="1" parent="HCvOZasf8MM4kw8mT1G2-7">
          <mxGeometry x="100" y="110" width="120" height="60" as="geometry" />
        </mxCell>
        <mxCell id="HCvOZasf8MM4kw8mT1G2-2" value="" style="edgeStyle=orthogonalEdgeStyle;rounded=0;orthogonalLoop=1;jettySize=auto;html=1;" edge="1" parent="HCvOZasf8MM4kw8mT1G2-7" source="HCvOZasf8MM4kw8mT1G2-0" target="HCvOZasf8MM4kw8mT1G2-1">
          <mxGeometry relative="1" as="geometry" />
        </mxCell>
        <mxCell id="HCvOZasf8MM4kw8mT1G2-3" value="Input Production Order Number" style="shape=parallelogram;perimeter=parallelogramPerimeter;whiteSpace=wrap;html=1;fixedSize=1;" vertex="1" parent="HCvOZasf8MM4kw8mT1G2-7">
          <mxGeometry x="100" y="200" width="120" height="60" as="geometry" />
        </mxCell>
        <mxCell id="HCvOZasf8MM4kw8mT1G2-4" value="" style="edgeStyle=orthogonalEdgeStyle;rounded=0;orthogonalLoop=1;jettySize=auto;html=1;" edge="1" parent="HCvOZasf8MM4kw8mT1G2-7" source="HCvOZasf8MM4kw8mT1G2-1" target="HCvOZasf8MM4kw8mT1G2-3">
          <mxGeometry relative="1" as="geometry" />
        </mxCell>
        <mxCell id="HCvOZasf8MM4kw8mT1G2-5" value="Ambil Data Production Order Number&lt;br&gt;Function = Z_Andon&lt;br&gt;RPT = check_prod_number&lt;br&gt;P_PROD_NUMBER = XXXXXX" style="shape=parallelogram;perimeter=parallelogramPerimeter;whiteSpace=wrap;html=1;fixedSize=1;" vertex="1" parent="HCvOZasf8MM4kw8mT1G2-7">
          <mxGeometry x="20" y="310" width="280" height="60" as="geometry" />
        </mxCell>
        <mxCell id="HCvOZasf8MM4kw8mT1G2-6" value="" style="edgeStyle=orthogonalEdgeStyle;rounded=0;orthogonalLoop=1;jettySize=auto;html=1;" edge="1" parent="HCvOZasf8MM4kw8mT1G2-7" source="HCvOZasf8MM4kw8mT1G2-3" target="HCvOZasf8MM4kw8mT1G2-5">
          <mxGeometry relative="1" as="geometry" />
        </mxCell>
        <mxCell id="HCvOZasf8MM4kw8mT1G2-9" value="API SAPRFC" style="swimlane;" vertex="1" parent="WIyWlLk6GJQsqaUBKTNV-1">
          <mxGeometry x="360" y="160" width="320" height="880" as="geometry" />
        </mxCell>
        <mxCell id="HCvOZasf8MM4kw8mT1G2-13" value="Request ke SAP&lt;br&gt;Function = Z_Andon&lt;br&gt;RPT = check_prod_number&lt;br&gt;P_PROD_NUMBER = XXXXXX" style="shape=parallelogram;perimeter=parallelogramPerimeter;whiteSpace=wrap;html=1;fixedSize=1;" vertex="1" parent="HCvOZasf8MM4kw8mT1G2-9">
          <mxGeometry x="40" y="310" width="240" height="60" as="geometry" />
        </mxCell>
        <mxCell id="HCvOZasf8MM4kw8mT1G2-10" value="SAP" style="swimlane;" vertex="1" parent="WIyWlLk6GJQsqaUBKTNV-1">
          <mxGeometry x="680" y="160" width="320" height="880" as="geometry" />
        </mxCell>
        <mxCell id="HCvOZasf8MM4kw8mT1G2-16" value="Seaching Data&lt;br&gt;&lt;span&gt;Function = Z_Andon&lt;/span&gt;&lt;br&gt;&lt;span&gt;RPT = check_prod_number&lt;/span&gt;&lt;br&gt;&lt;span&gt;P_PROD_NUMBER = XXXXXX&lt;/span&gt;" style="shape=parallelogram;perimeter=parallelogramPerimeter;whiteSpace=wrap;html=1;fixedSize=1;" vertex="1" parent="HCvOZasf8MM4kw8mT1G2-10">
          <mxGeometry x="40" y="310" width="240" height="60" as="geometry" />
        </mxCell>
        <mxCell id="HCvOZasf8MM4kw8mT1G2-19" value="Send Data&lt;br&gt;&lt;span&gt;Function = Z_Andon&lt;/span&gt;&lt;br&gt;&lt;span&gt;RPT = check_prod_number&lt;/span&gt;&lt;br&gt;&lt;span&gt;P_PROD_NUMBER = XXXXXX&lt;/span&gt;" style="shape=parallelogram;perimeter=parallelogramPerimeter;whiteSpace=wrap;html=1;fixedSize=1;" vertex="1" parent="HCvOZasf8MM4kw8mT1G2-10">
          <mxGeometry x="40" y="425" width="240" height="60" as="geometry" />
        </mxCell>
        <mxCell id="HCvOZasf8MM4kw8mT1G2-14" value="" style="edgeStyle=orthogonalEdgeStyle;rounded=0;orthogonalLoop=1;jettySize=auto;html=1;" edge="1" parent="WIyWlLk6GJQsqaUBKTNV-1" source="HCvOZasf8MM4kw8mT1G2-5" target="HCvOZasf8MM4kw8mT1G2-13">
          <mxGeometry relative="1" as="geometry" />
        </mxCell>
        <mxCell id="HCvOZasf8MM4kw8mT1G2-17" value="" style="edgeStyle=orthogonalEdgeStyle;rounded=0;orthogonalLoop=1;jettySize=auto;html=1;" edge="1" parent="WIyWlLk6GJQsqaUBKTNV-1" source="HCvOZasf8MM4kw8mT1G2-13" target="HCvOZasf8MM4kw8mT1G2-16">
          <mxGeometry relative="1" as="geometry" />
        </mxCell>
      </root>
    </mxGraphModel>
  </diagram>
</mxfile>
